<svg xmlns="http://www.w3.org/2000/svg" width="342" height="300" viewBox="0 0 342 300" role="img" aria-labelledby="title desc">
  <title id="title">dmfdeploy icon white</title>
  <desc id="desc">Icon-only dmfdeploy mark built from true SVG ellipses in white.</desc>

  <defs>
    <linearGradient id="bg-blue" x1="0" x2="1" y1="0" y2="0">
      <stop offset="0" stop-color="#173B5F"/>
      <stop offset="1" stop-color="#57728C"/>
    </linearGradient>
    <style>
      .wordmark {
        font-family: "Arial Rounded MT Bold", "Arial Rounded", "Avenir Next", "Inter", ui-rounded, sans-serif;
        font-size: 118px;
        font-weight: 700;
        letter-spacing: -5px;
      }
      .tagline {
        font-family: "Avenir Next", "Inter", ui-sans-serif, system-ui, sans-serif;
        font-size: 22px;
        font-weight: 500;
        letter-spacing: 15px;
      }
    </style>
  </defs>
<g id="dmfdeploy-symbol" transform="translate(46 42) scale(1)" fill="#FFFFFF">
    <ellipse cx="101" cy="91" rx="52" ry="39" transform="rotate(-17 101 91)"/>
    <ellipse cx="63" cy="52" rx="24" ry="8.5" transform="rotate(-24 63 52)"/>
    <ellipse cx="146" cy="30" rx="22" ry="8.5" transform="rotate(3 146 30)"/>
    <ellipse cx="190" cy="69" rx="22.5" ry="18" transform="rotate(45 190 69)"/>
    <ellipse cx="166" cy="139" rx="30" ry="18.5" transform="rotate(-35 166 139)"/>
    <ellipse cx="226" cy="139" rx="21" ry="14.5" transform="rotate(-31 226 139)"/>
    <ellipse cx="86" cy="158" rx="26.5" ry="14.5" transform="rotate(-5 86 158)"/>
    <ellipse cx="120" cy="198" rx="20" ry="11.5" transform="rotate(-6 120 198)"/>
    <ellipse cx="37" cy="126" rx="17.5" ry="12" transform="rotate(68 37 126)"/>
    <ellipse cx="26" cy="163" rx="12" ry="8" transform="rotate(67 26 163)"/>
    <ellipse cx="202" cy="27" rx="13.5" ry="8" transform="rotate(22 202 27)"/>
    <ellipse cx="121" cy="11" rx="11" ry="4.5" transform="rotate(-9 121 11)"/>
    <ellipse cx="14" cy="94" rx="9.5" ry="4.8" transform="rotate(116 14 94)"/>
    <ellipse cx="50" cy="39" rx="10" ry="3.8" transform="rotate(144 50 39)"/>
    </g>
</svg>
